<svg width="50" height="50" viewBox="0 0 50 50" fill="none" xmlns="http://www.w3.org/2000/svg">
<circle cx="25" cy="25" r="25" fill="white"/>
<path d="M38.9648 37.5195C36.8066 33.7695 32.7539 31.25 28.125 31.25H21.875C17.2461 31.25 13.1934 33.7695 11.0352 37.5195C14.4727 41.3477 19.4531 43.75 25 43.75C30.5469 43.75 35.5273 41.3379 38.9648 37.5195ZM0 25C0 18.3696 2.63392 12.0107 7.32233 7.32233C12.0107 2.63392 18.3696 0 25 0C31.6304 0 37.9893 2.63392 42.6777 7.32233C47.3661 12.0107 50 18.3696 50 25C50 31.6304 47.3661 37.9893 42.6777 42.6777C37.9893 47.3661 31.6304 50 25 50C18.3696 50 12.0107 47.3661 7.32233 42.6777C2.63392 37.9893 0 31.6304 0 25ZM25 26.5625C26.8648 26.5625 28.6532 25.8217 29.9718 24.5031C31.2905 23.1845 32.0312 21.3961 32.0312 19.5312C32.0312 17.6664 31.2905 15.878 29.9718 14.5594C28.6532 13.2408 26.8648 12.5 25 12.5C23.1352 12.5 21.3468 13.2408 20.0282 14.5594C18.7095 15.878 17.9688 17.6664 17.9688 19.5312C17.9688 21.3961 18.7095 23.1845 20.0282 24.5031C21.3468 25.8217 23.1352 26.5625 25 26.5625Z" fill="#5764F6"/>
</svg>
