<svg width="32" height="32" viewBox="0 0 32 32" fill="none" xmlns="http://www.w3.org/2000/svg">
<circle cx="16" cy="16" r="16" fill="white"/>
<path d="M24.3789 23.5117C23.084 21.2617 20.6523 19.75 17.875 19.75H14.125C11.3477 19.75 8.91602 21.2617 7.62109 23.5117C9.68359 25.8086 12.6719 27.25 16 27.25C19.3281 27.25 22.3164 25.8027 24.3789 23.5117ZM31 16C31 24.2852 24.2852 31 16 31C7.71484 31 1 24.2852 1 16C1 7.71484 7.71484 1 16 1C24.2852 1 31 7.71484 31 16ZM16 16.9375C18.332 16.9375 20.2188 15.0508 20.2188 12.7188C20.2188 10.3867 18.332 8.5 16 8.5C13.668 8.5 11.7812 10.3867 11.7812 12.7188C11.7812 15.0508 13.668 16.9375 16 16.9375Z" fill="#5764F6"/>
</svg>
